<svg width="358" height="51" viewBox="0 0 358 51" fill="none" xmlns="http://www.w3.org/2000/svg">
<rect y="0.337158" width="358" height="50.152" rx="2" fill="black"/>
<path d="M155.162 23C154.676 20.3153 152.529 18.7301 149.895 18.7301C146.546 18.7301 144.117 21.3125 144.117 25.4545C144.117 29.5966 146.546 32.179 149.895 32.179C152.529 32.179 154.676 30.5938 155.162 27.9091H153.577C153.194 29.7244 151.634 30.696 149.895 30.696C147.517 30.696 145.651 28.8551 145.651 25.4545C145.651 22.054 147.517 20.2131 149.895 20.2131C151.634 20.2131 153.194 21.1847 153.577 23H155.162ZM161.508 32.2045C164.167 32.2045 165.957 30.1847 165.957 27.142C165.957 24.0739 164.167 22.054 161.508 22.054C158.849 22.054 157.059 24.0739 157.059 27.142C157.059 30.1847 158.849 32.2045 161.508 32.2045ZM161.508 30.8494C159.488 30.8494 158.568 29.1108 158.568 27.142C158.568 25.1733 159.488 23.4091 161.508 23.4091C163.528 23.4091 164.448 25.1733 164.448 27.142C164.448 29.1108 163.528 30.8494 161.508 30.8494ZM167.646 29.4943C167.697 31.1051 169.238 32.2045 171.328 32.2045C173.475 32.2045 175.035 31.054 175.035 29.2642C175.035 28.0369 174.3 27.0398 173.194 26.9631V26.8608C174.127 26.5732 174.831 25.8956 174.831 24.7898C174.831 23.2365 173.501 22.054 171.43 22.054C169.385 22.054 167.927 23.179 167.876 24.7642H169.461C169.506 23.9524 170.356 23.3835 171.507 23.3835C172.651 23.3835 173.297 23.9652 173.297 24.8409C173.297 25.6591 172.734 26.2727 171.532 26.2727H169.845V27.6278H171.532C172.734 27.6278 173.501 28.2862 173.501 29.2642C173.501 30.3828 172.51 30.8494 171.302 30.8494C170.12 30.8494 169.327 30.3828 169.257 29.4943H167.646ZM176.106 34.8125H177.614V32H184.876V34.8125H186.384V30.5938H184.876V22.1818H178.637L178.305 26.0682C178.068 28.8168 177.717 29.7628 176.924 30.5938H176.106V34.8125ZM178.637 30.5938C179.327 29.6861 179.577 28.12 179.788 26.0682L180.043 23.5881H183.367V30.5938H178.637ZM191.276 32.2301C192.989 32.2301 193.884 31.3097 194.191 30.6705H194.267V32H195.776V25.5312C195.776 22.4119 193.398 22.054 192.145 22.054C190.662 22.054 188.975 22.5653 188.208 24.3551L189.639 24.8665C189.972 24.1506 190.758 23.3835 192.196 23.3835C193.583 23.3835 194.267 24.1186 194.267 25.3778V25.429C194.267 26.1577 193.526 26.0938 191.736 26.3239C189.914 26.5604 187.926 26.9631 187.926 29.2131C187.926 31.1307 189.409 32.2301 191.276 32.2301ZM191.506 30.875C190.304 30.875 189.435 30.3381 189.435 29.2898C189.435 28.1392 190.483 27.7812 191.659 27.6278C192.298 27.5511 194.012 27.3722 194.267 27.0653V28.446C194.267 29.6733 193.296 30.875 191.506 30.875ZM197.193 23.5881H200.44V32H201.949V23.5881H205.17V22.1818H197.193V23.5881ZM208.879 25.7358V22.1818H207.371V32H211.487C213.789 32 215.041 30.5938 215.041 28.8295C215.041 27.0398 213.789 25.7358 211.487 25.7358H208.879ZM208.879 27.142H211.487C212.683 27.142 213.533 27.8707 213.533 28.9062C213.533 29.897 212.683 30.5938 211.487 30.5938H208.879V27.142Z" fill="white"/>
</svg>
