<svg width="358" height="50" viewBox="0 0 358 50" fill="none" xmlns="http://www.w3.org/2000/svg">
<rect width="358" height="50" rx="2" fill="black"/>
<path d="M144.475 23C143.989 20.3153 141.841 18.7301 139.208 18.7301C135.858 18.7301 133.429 21.3125 133.429 25.4545C133.429 29.5966 135.858 32.179 139.208 32.179C141.841 32.179 143.989 30.5938 144.475 27.9091H142.89C142.506 29.7244 140.946 30.696 139.208 30.696C136.83 30.696 134.963 28.8551 134.963 25.4545C134.963 22.054 136.83 20.2131 139.208 20.2131C140.946 20.2131 142.506 21.1847 142.89 23H144.475ZM150.82 32.2045C153.48 32.2045 155.269 30.1847 155.269 27.142C155.269 24.0739 153.48 22.054 150.82 22.054C148.161 22.054 146.372 24.0739 146.372 27.142C146.372 30.1847 148.161 32.2045 150.82 32.2045ZM150.82 30.8494C148.801 30.8494 147.88 29.1108 147.88 27.142C147.88 25.1733 148.801 23.4091 150.82 23.4091C152.84 23.4091 153.761 25.1733 153.761 27.142C153.761 29.1108 152.84 30.8494 150.82 30.8494ZM158.293 22.1818H156.554L159.673 27.0909L156.554 32H158.293L160.645 28.1903L162.997 32H164.736L161.566 27.0909L164.736 22.1818H162.997L160.645 26.196L158.293 22.1818ZM166.888 35.6818H168.397V30.4915H168.525C168.857 31.0284 169.496 32.2045 171.388 32.2045C173.843 32.2045 175.556 30.2358 175.556 27.1165C175.556 24.0227 173.843 22.054 171.363 22.054C169.445 22.054 168.857 23.2301 168.525 23.7415H168.346V22.1818H166.888V35.6818ZM168.371 27.0909C168.371 24.892 169.343 23.4091 171.184 23.4091C173.102 23.4091 174.048 25.0199 174.048 27.0909C174.048 29.1875 173.076 30.8494 171.184 30.8494C169.369 30.8494 168.371 29.3153 168.371 27.0909ZM180.746 32.2301C182.46 32.2301 183.354 31.3097 183.661 30.6705H183.738V32H185.246V25.5312C185.246 22.4119 182.869 22.054 181.616 22.054C180.133 22.054 178.445 22.5653 177.678 24.3551L179.11 24.8665C179.442 24.1506 180.229 23.3835 181.667 23.3835C183.054 23.3835 183.738 24.1186 183.738 25.3778V25.429C183.738 26.1577 182.996 26.0938 181.207 26.3239C179.385 26.5604 177.397 26.9631 177.397 29.2131C177.397 31.1307 178.88 32.2301 180.746 32.2301ZM180.977 30.875C179.775 30.875 178.906 30.3381 178.906 29.2898C178.906 28.1392 179.954 27.7812 181.13 27.6278C181.769 27.5511 183.482 27.3722 183.738 27.0653V28.446C183.738 29.6733 182.766 30.875 180.977 30.875ZM189.508 22.1818H188V32H189.508V27.8068H194.213V32H195.721V22.1818H194.213V26.4006H189.508V22.1818ZM199.985 29.7756V22.1818H198.476V32H200.241L204.945 24.4062V32H206.454V22.1818H204.715L199.985 29.7756ZM207.881 23.5881H211.128V32H212.636V23.5881H215.858V22.1818H207.881V23.5881ZM219.567 25.7358V22.1818H218.058V32H222.175C224.476 32 225.729 30.5938 225.729 28.8295C225.729 27.0398 224.476 25.7358 222.175 25.7358H219.567ZM219.567 27.142H222.175C223.37 27.142 224.22 27.8707 224.22 28.9062C224.22 29.897 223.37 30.5938 222.175 30.5938H219.567V27.142Z" fill="white"/>
</svg>
